<?xml version="1.0" standalone="no"?><!DOCTYPE svg PUBLIC "-//W3C//DTD SVG 1.1//EN" "http://www.w3.org/Graphics/SVG/1.1/DTD/svg11.dtd"><svg t="1558075381666" class="icon" style="" viewBox="0 0 1024 1024" version="1.1" xmlns="http://www.w3.org/2000/svg" p-id="7699" xmlns:xlink="http://www.w3.org/1999/xlink" width="64" height="64"><defs><style type="text/css"></style></defs><path d="M836.3 252.52m-90.56 0a90.56 90.56 0 1 0 181.12 0 90.56 90.56 0 1 0-181.12 0Z" p-id="7700"></path><path d="M430.1 908.59L241.4 808.31c-0.78 0.73-1.58 1.45-2.4 2.13l191 101.48v-0.07c0-1.1 0-2.18 0.1-3.26zM506.22 141.71l-195.5 59.84c0.12 1 0.22 2 0.28 3l197.28-60.38c-0.71-0.76-1.4-1.6-2.06-2.46zM595.87 123.79l144.86 77a107.89 107.89 0 0 0-9.61 24.58l-148.3-78.8c-0.74 0.75-1.51 1.48-2.3 2.18l152.6 81.08 0.45-1.88a104.81 104.81 0 0 1 10.52-27l0.75-1.34-148.27-78.84c-0.2 1.02-0.44 2.02-0.7 3.02zM300.87 177.14l195.26-59.75c-0.13-1-0.23-2-0.31-3l-197 60.28c0.71 0.78 1.4 1.61 2.05 2.47zM772.87 790l99.91-188c-0.74-0.76-1.45-1.55-2.14-2.36L770.18 788.65c0.91 0.42 1.82 0.86 2.69 1.35zM125.09 422.21l96.35-181.34c-0.7-0.83-1.39-1.67-2-2.54L122 421.63c1 0.16 2.07 0.37 3.09 0.58zM525.46 887.1l172.36-52.75c0-1.07 0.06-2.12 0.13-3.18l-174.08 53.28c0.56 0.87 1.13 1.75 1.59 2.65zM888.87 519.94l-48.62-158.85a108.4 108.4 0 0 0 26.16-4.09l48.64 159c1.11 0.12 2.2 0.29 3.29 0.48l-49.93-163.23-1.44 0.43a105.8 105.8 0 0 1-28.76 4.46h-2l49.91 163.08c0.88-0.44 1.82-0.87 2.75-1.28zM136.88 517.65l62.18 203.13c1-0.15 2-0.26 3-0.35L139.58 516.2c-0.88 0.51-1.78 0.99-2.7 1.45zM243.19 255.82l-94.78 178.36c0.78 0.69 1.52 1.42 2.25 2.16l95.44-179.6c-0.99-0.28-1.96-0.58-2.91-0.92zM255.29 786l183.35 97.43q0.86-1.26 1.77-2.46L256.09 783c-0.24 1-0.5 2-0.8 3zM174.86 731.29l-63.8-208.46c-1.09-0.07-2.17-0.18-3.24-0.31l64.54 210.88c0.81-0.73 1.64-1.4 2.5-2.11zM704.32 859.78l-172.46 52.77c0 1.07-0.06 2.13-0.14 3.19l174.2-53.31c-0.56-0.87-1.1-1.75-1.6-2.65zM895.26 615.5L792.54 808.83c0.61 1 1.18 2.08 1.72 3.15l104-195.72c-1.01-0.26-2.01-0.48-3-0.76z" p-id="7701"></path><path d="M918.34 516.41c-1.09-0.19-2.18-0.36-3.29-0.48L866.41 357a108.4 108.4 0 0 1-26.16 4.12l48.62 158.85c-0.93 0.41-1.84 0.84-2.74 1.31a50.91 50.91 0 0 0-15.49 78.34c0.69 0.81 1.4 1.6 2.14 2.36L772.87 790c-0.88-0.47-1.78-0.91-2.69-1.33a50.93 50.93 0 0 0-72.18 42.5 55.95 55.95 0 0 0-0.13 3.18L525.46 887.1c-0.5-0.9-1-1.78-1.59-2.65a50.92 50.92 0 0 0-83.46-3.45q-0.92 1.2-1.77 2.46L255.29 786c0.3-1 0.56-2 0.8-3a51 51 0 0 0-49.54-62.82c-1.51 0-3 0.08-4.46 0.21-1 0.09-2 0.2-3 0.35l-62.21-203.09c0.92-0.46 1.82-0.94 2.7-1.45a50.93 50.93 0 0 0 11.08-79.86c-0.73-0.74-1.47-1.47-2.25-2.16l94.78-178.36c0.95 0.34 1.92 0.64 2.91 0.92a50.91 50.91 0 0 0 65-49c0-1.07 0-2.13-0.11-3.18s-0.16-2-0.28-3l195.5-59.84c0.66 0.86 1.35 1.7 2.06 2.51a50.89 50.89 0 0 0 72.24 4.5c0.79-0.7 1.56-1.43 2.3-2.18l148.3 78.8a107.89 107.89 0 0 1 9.61-24.58l-144.86-77c0.26-1 0.5-2 0.7-3a50.95 50.95 0 1 0-100.88-10.07c0 1.23 0.06 2.44 0.14 3.65 0.08 1 0.18 2 0.31 3l-195.26 59.79c-0.65-0.86-1.34-1.69-2-2.51a50.94 50.94 0 0 0-79.43 63.7c0.65 0.87 1.34 1.71 2 2.54l-96.35 181.34c-1-0.22-2-0.42-3.09-0.58a51.77 51.77 0 0 0-7.72-0.58 50.94 50.94 0 0 0-6.46 101.47c1.07 0.13 2.15 0.24 3.24 0.31l63.8 208.46c-0.85 0.68-1.69 1.38-2.5 2.11a50.94 50.94 0 0 0 66.64 77c0.82-0.68 1.62-1.4 2.4-2.13l188.7 100.32c-0.07 1.08-0.11 2.16-0.11 3.26v0.07a50.94 50.94 0 0 0 101.73 3.82c0.08-1.06 0.13-2.12 0.14-3.19l172.46-52.77c0.5 0.9 1 1.78 1.6 2.65A50.94 50.94 0 0 0 794.26 812c-0.54-1.07-1.11-2.12-1.72-3.15L895.26 615.5c1 0.28 2 0.54 3 0.76a50.94 50.94 0 1 0 20.08-99.85z" p-id="7702"></path><path d="M433.57 483.24c-19.49 0-29.31 17.14-29.31 37.6 0 20.19 9.68 37.47 29.31 37.47 20.05 0 29.45-17 29.45-37.47s-9.96-37.6-29.45-37.6z" p-id="7703"></path><path d="M320.13 332c-105.92 105.92-105.92 277.64 0 383.56s277.63 105.91 383.55 0 105.91-277.63 0-383.54S426 226 320.13 332z m1.32 244.47c-34.15 0-48.94-26.4-48.94-55.72 0-28.75 14.1-55.44 48.94-55.44 24.89 0 39.41 14 44.8 30.14l-20.47 3.18c-5.25-10.23-12.72-15.34-24.33-15.34-17.56 0-28.62 13.68-28.62 37.46 0 22.82 11.06 37.61 28.62 37.61 12.31 0 20.19-5.67 24.61-15.9l20.46 3c-5.94 17.41-20.18 30.96-45.07 30.96z m112.12 0c-35 0-49.64-27.51-49.64-55.58 0-28.48 14.94-55.58 49.64-55.58s49.63 27.1 49.63 55.58-14.2 55.53-49.63 55.53z m195.21-2.35h-20.33v-76.64h-0.27l-30.56 76.59h-19.77l-31-76.59h-0.28v76.59h-20.15V467.61h29.72l31.53 79.64h0.14l31.24-79.64h29.73z m116.68-78.72L725 498.58c-5.25-10.23-12.71-15.34-24.33-15.34-17.56 0-28.62 13.68-28.62 37.46 0 22.82 11.06 37.61 28.62 37.61 12.31 0 20.19-5.67 24.61-15.9l20.46 3c-5.94 17.42-20.18 31-45.07 31-34.15 0-48.94-26.4-48.94-55.72 0-28.75 14.1-55.44 48.94-55.44 24.88 0.01 39.4 13.98 44.79 30.15z" p-id="7704"></path></svg>