<?xml version="1.0" standalone="no"?><!DOCTYPE svg PUBLIC "-//W3C//DTD SVG 1.1//EN" "http://www.w3.org/Graphics/SVG/1.1/DTD/svg11.dtd"><svg t="1558436485070" class="icon" style="" viewBox="0 0 1024 1024" version="1.1" xmlns="http://www.w3.org/2000/svg" p-id="692" xmlns:xlink="http://www.w3.org/1999/xlink" width="64" height="64"><defs><style type="text/css"></style></defs><path d="M385.78251852 427.04592592h582.54222223c5.33997037 0 9.70903703-4.36906667 9.70903703-9.70903703v-67.96325926c0-5.33997037-4.36906667-9.70903703-9.70903703-9.70903704H385.78251852c-5.33997037 0-9.70903703 4.36906667-9.70903704 9.70903704v67.96325926c0 5.33997037 4.36906667 9.70903703 9.70903704 9.70903703z m-9.70903704 247.58044445c0 5.33997037 4.36906667 9.70903703 9.70903704 9.70903704h582.54222223c5.33997037 0 9.70903703-4.36906667 9.70903703-9.70903704v-67.96325926c0-5.33997037-4.36906667-9.70903703-9.70903703-9.70903703H385.78251852c-5.33997037 0-9.70903703 4.36906667-9.70903704 9.70903703v67.96325926z m611.66933334-589.824H36.25718518c-5.33997037 0-9.70903703 4.36906667-9.70903703 9.70903704v67.96325926c0 5.33997037 4.36906667 9.70903703 9.70903703 9.70903703h951.48562964c5.33997037 0 9.70903703-4.36906667 9.70903703-9.70903703v-67.96325926c0-5.33997037-4.36906667-9.70903703-9.70903703-9.70903704z m0 767.01392593H36.25718518c-5.33997037 0-9.70903703 4.36906667-9.70903703 9.70903703v67.96325926c0 5.33997037 4.36906667 9.70903703 9.70903703 9.70903704h951.48562964c5.33997037 0 9.70903703-4.36906667 9.70903703-9.70903704v-67.96325926c0-5.33997037-4.36906667-9.70903703-9.70903703-9.70903703zM30.67448889 520.37404445L220.3648 669.77185185c7.03905185 5.5826963 17.47626667 0.60681482 17.47626667-8.37404444V362.60219259c0-8.98085925-10.31585185-13.95674075-17.47626667-8.37404444L30.67448889 503.62595555c-5.46133333 4.2477037-5.46133333 12.50038518 0 16.7480889z" p-id="693"></path></svg>